<?xml version="1.0" encoding="utf-8"?>
<!-- Generator: Adobe Illustrator 22.1.0, SVG Export Plug-In . SVG Version: 6.00 Build 0)  -->
<svg version="1.1" id="Layer_1" xmlns="http://www.w3.org/2000/svg" xmlns:xlink="http://www.w3.org/1999/xlink" x="0px" y="0px"
	 width="120px" height="52px" viewBox="0 0 120 52" style="enable-background:new 0 0 120 52;" xml:space="preserve">
<style type="text/css">
	.st0{fill:#FFFFFF;}
</style>
<title>logo</title>
<desc>Created with Sketch.</desc>
<rect width="120" height="52"/>
<g id="logo">
	<g id="Shape" transform="translate(20.000000, 20.000000)">
		<polygon class="st0" points="0,11.8 0,0.4 0.7,0.2 5.4,5.8 10.1,0.2 10.8,0.4 10.8,11.8 8.3,11.8 8.3,6.3 5.6,9.7 5.3,9.7 
			2.6,6.3 2.6,11.7 0,11.7 		"/>
		<path class="st0" d="M15.8,11.8L21,0.2h0.9L27,11.8h-2.9l-0.6-1.4h-4.2l-0.6,1.4H15.8z M20.3,8.2h2.3l-1.1-2.8L20.3,8.2z"/>
		<polygon class="st0" points="38.4,2.6 35.5,2.6 35.5,11.7 32.9,11.7 32.9,2.6 30,2.6 30,0.4 38.5,0.4 38.5,2.6 		"/>
		<polygon class="st0" points="43.9,0.4 46.5,0.4 46.5,11.8 43.9,11.8 		"/>
		<path class="st0" d="M59.2,3.4c-0.7-0.4-1.7-0.8-2.5-0.8c-0.9,0-1.6,0.3-1.6,0.9s0.8,1,1.9,1.4c2.8,1.1,3.4,2.4,3.3,3.7
			c-0.1,2.1-1.9,3.3-4.2,3.3c-1.6,0-3.2-0.8-3.8-1.4l1-2.1C53.9,9,55,9.6,56,9.6c0.8,0,1.7-0.2,1.7-0.9c0-0.8-1.4-1.1-2.5-1.7
			c-1.7-0.8-2.7-1.9-2.7-3.6S54,0,56.5,0c1.4,0,3,0.7,3.5,1L59.2,3.4z"/>
		<polygon class="st0" points="73.3,9.5 73.3,11.7 66,11.7 66,0.4 73.1,0.4 73.1,2.6 68.6,2.6 68.6,4.8 72.4,4.8 72.4,7.1 68.6,7.1 
			68.6,9.4 73.3,9.4 		"/>
		<path class="st0" d="M78.5,8.9c0.8,0,1.5,0.7,1.5,1.5c0,0.9-0.7,1.5-1.5,1.5S77,11.3,77,10.4C77,9.6,77.7,8.9,78.5,8.9z"/>
	</g>
</g>
</svg>
