<svg xmlns="http://www.w3.org/2000/svg" xmlns:xlink="http://www.w3.org/1999/xlink" width="723" height="87" viewBox="0 0 723 87">
    <defs>
        <path id="a" d="M.099 16.669c0 8.941 7.059 16 16 16 8.941 0 16-7.059 16-16 0-8.942-7.059-16.001-16-16.001-8.941 0-16 7.059-16 16.001z"/>
        <path id="c" d="M.871.742h53.331V60H.872z"/>
        <path id="e" d="M.137.742h53.33V60H.138z"/>
        <path id="g" d="M.067.742h53.331V60H.068z"/>
        <path id="i" d="M.447.742H53.78V60H.447z"/>
    </defs>
    <g fill="none" fill-rule="evenodd">
        <g transform="translate(690 .332)">
            <mask id="b" fill="#fff">
                <use xlink:href="#a"/>
            </mask>
            <path fill="#191A1B" d="M-4.901 37.668h42v-42h-42z" mask="url(#b)"/>
        </g>
        <path fill="#191A1B" d="M70.754 85.738h-8.179L49.42 53.264 36.502 85.738h-8.177l-17.659-43.97C8.06 35.37 6.52 32.406.002 32.406V28.26h34.96v4.147c-6.873 0-6.517 3.556-4.384 9.362l7.94 22.163L52.383 28.26h7.111L72.77 63.931l8.651-22.163c2.133-5.569 3.674-9.362-3.912-9.362V28.26h21.808v4.147c-6.993 0-7.94 2.37-10.785 9.362l-17.778 43.97z"/>
        <g transform="translate(97 26.332)">
            <mask id="d" fill="#fff">
                <use xlink:href="#c"/>
            </mask>
            <path fill="#191A1B" d="M21.73 24.326l13.628-.712c2.963-7.229 3.2-18.726-4.029-18.726-5.215 0-8.889 9.246-9.6 19.438m30.577 3.081l-30.696 1.66c.356 18.014 11.733 28.087 30.696 16.71l1.896 3.081C26.114 70.428.872 58.814.872 30.015.871 10.46 17.343.74 31.328.74c11.022 0 28.68 4.505 20.977 26.666" mask="url(#d)"/>
        </g>
        <path fill="#191A1B" d="M194.271 85.145H153.74v-4.147c8.296 0 8.888-2.016 8.888-9.246V41.651c0-7.23-.592-9.245-8.888-9.245V28.85l21.064-.846c4.588-.184 8.388 3.523 8.32 8.114l-.11 7.428c6.4-11.022 16.117-18.132 22.873-16.59 8.888 2.131 3.436 14.812-3.319 20.146-3.2-3.792-12.918-8.06-19.555 2.845v21.805c0 7.23.356 9.246 11.26 9.246v4.147z"/>
        <g transform="translate(211 26.332)">
            <mask id="f" fill="#fff">
                <use xlink:href="#e"/>
            </mask>
            <path fill="#191A1B" d="M20.995 24.326l13.629-.712c2.963-7.229 3.2-18.726-4.03-18.726-5.214 0-8.888 9.246-9.6 19.438m30.578 3.081l-30.696 1.66c.356 18.014 11.733 28.087 30.696 16.71l1.896 3.081C25.38 70.428.137 58.814.137 30.015.137 10.46 16.61.74 30.595.74c11.022 0 28.68 4.505 20.977 26.666" mask="url(#f)"/>
        </g>
        <path fill="#191A1B" d="M304.112 85.145H265.95v-4.147c8.296 0 8.889-2.016 8.889-9.246v-57.36c0-7.229-.593-8.652-8.89-8.652V2.184l27.193-1.1a2 2 0 0 1 2.08 1.998v68.67c0 7.23.594 9.246 8.89 9.246v4.147zM344.632 74.005V41.177c-.118-3.674-1.185-9.956-7.704-9.956-9.6 0-10.666 18.37-10.666 26.666 0 10.667 2.252 21.096 8.889 21.096 2.488 0 5.688-1.54 9.48-4.978zm20.385-4.622c0 8.77.118 10.43 8.887 10.43v3.555l-27.072 2.74a2 2 0 0 1-2.2-1.99v-5.016c-5.57 5.095-11.733 7.229-17.067 7.229-12.325 0-22.161-11.733-22.161-28.444 0-21.925 15.644-30.814 29.627-30.814 3.556 0 6.757.71 9.6 1.897V14.392c0-7.23-.591-9.244-8.887-9.244V1.593l27.231-.551a2 2 0 0 1 2.041 1.999v66.342zM408.748 85.738h-8.178l-18.843-43.97c-2.608-6.399-4.15-9.362-10.667-9.362V28.26h34.962v4.147c-6.874 0-6.637 3.674-4.385 9.362L411 64.998l9.6-23.23c2.37-5.569 3.673-9.362-3.912-9.362V28.26h21.807v4.147c-6.992 0-7.94 2.37-10.785 9.362l-18.962 43.97z"/>
        <path fill="#191A1B" d="M482.202 85.145H441.67v-4.147c8.296 0 8.888-2.016 8.888-9.246V41.651c0-7.23-3.767-9.245-12.063-9.245v-4.148l24.418-.443a8 8 0 0 1 8.143 8.12l-.113 7.611c6.4-11.022 16.118-18.132 22.873-16.59 8.889 2.131 3.438 14.812-3.318 20.146-3.2-3.792-12.918-8.06-19.555 2.845v21.805c0 7.23.356 9.246 11.259 9.246v4.147z"/>
        <g transform="translate(499 26.332)">
            <mask id="h" fill="#fff">
                <use xlink:href="#g"/>
            </mask>
            <path fill="#191A1B" d="M20.925 24.326l13.63-.712c2.962-7.229 3.2-18.726-4.03-18.726-5.215 0-8.889 9.246-9.6 19.438m30.577 3.081l-30.695 1.66c.355 18.014 11.732 28.087 30.695 16.71l1.896 3.081C25.31 70.428.068 58.814.068 30.015.067 10.46 16.54.74 30.524.74c11.022 0 28.68 4.505 20.977 26.666" mask="url(#h)"/>
        </g>
        <path fill="#191A1B" d="M596.286 74.005V41.177c-.12-3.674-1.186-9.956-7.704-9.956-9.6 0-10.666 18.37-10.666 26.666 0 10.667 2.252 21.096 8.889 21.096 2.489 0 5.688-1.54 9.48-4.978zm20.385-4.622c0 8.77.118 10.43 8.887 10.43v3.555l-27.071 2.74a2 2 0 0 1-2.201-1.99v-5.016c-5.57 5.095-11.733 7.229-17.066 7.229-12.326 0-22.163-11.733-22.163-28.444 0-21.925 15.644-30.814 29.629-30.814 3.555 0 6.755.71 9.6 1.897V14.392c0-7.23-.593-9.244-8.89-9.244V1.593l27.234-.551a2 2 0 0 1 2.04 1.999v66.342z"/>
        <g transform="translate(626 26.332)">
            <mask id="j" fill="#fff">
                <use xlink:href="#i"/>
            </mask>
            <path fill="#191A1B" d="M21.305 24.326l13.63-.712c2.962-7.229 3.2-18.726-4.03-18.726-5.215 0-8.889 9.246-9.6 19.438m30.577 3.081l-30.695 1.66c.355 18.014 11.732 28.087 30.695 16.71l1.897 3.081C25.69 70.428.447 58.814.447 30.015.447 10.46 16.92.74 30.905.74c11.022 0 28.68 4.505 20.977 26.666" mask="url(#j)"/>
        </g>
    </g>
</svg>
